<svg width="46" height="33" viewBox="0 0 46 33" fill="none" xmlns="http://www.w3.org/2000/svg">
<g filter="url(#filter0_dd_2149_33361)">
<rect x="5" y="3" width="36" height="22" rx="2.76923" fill="white"/>
<rect x="4.94231" y="2.94231" width="36.1154" height="22.1154" rx="2.82692" stroke="#D6DCE5" stroke-width="0.115385"/>
<path d="M16.6439 11.1184C16.8841 10.8334 17.0471 10.4508 17.0041 10.0598C16.6525 10.0764 16.2235 10.2798 15.9751 10.565C15.752 10.8093 15.5546 11.2079 15.6061 11.5825C16.0008 11.615 16.3951 11.3954 16.6439 11.1184Z" fill="#000008"/>
<path d="M16.9996 11.6557C16.4265 11.6233 15.9391 11.9642 15.6654 11.9642C15.3916 11.9642 14.9724 11.672 14.5191 11.6799C13.929 11.6881 13.3815 12.0045 13.0821 12.5079C12.4662 13.5148 12.9196 15.0084 13.5185 15.8285C13.8093 16.2342 14.1598 16.6809 14.6217 16.6649C15.058 16.6486 15.2291 16.3968 15.7595 16.3968C16.2895 16.3968 16.4436 16.6649 16.9055 16.6567C17.3846 16.6486 17.684 16.2508 17.9749 15.8447C18.3085 15.3822 18.4451 14.9356 18.4537 14.9111C18.4451 14.903 17.53 14.57 17.5215 13.5714C17.5129 12.7353 18.24 12.3377 18.2742 12.313C17.8636 11.7369 17.222 11.672 16.9996 11.6557Z" fill="#000008"/>
<path d="M21.9902 10.5241C23.236 10.5241 24.1035 11.3387 24.1035 12.5246C24.1035 13.7148 23.2181 14.5336 21.959 14.5336H20.5797V16.6143H19.5832V10.5241L21.9902 10.5241ZM20.5797 13.7401H21.7232C22.5908 13.7401 23.0846 13.297 23.0846 12.5289C23.0846 11.7608 22.5908 11.3218 21.7276 11.3218H20.5797V13.7401Z" fill="#000008"/>
<path d="M24.3638 15.3524C24.3638 14.5758 24.9912 14.0989 26.1036 14.0398L27.3848 13.9681V13.6262C27.3848 13.1324 27.0333 12.837 26.4461 12.837C25.8899 12.837 25.5428 13.0902 25.4584 13.487H24.5507C24.6041 12.685 25.3248 12.0941 26.4817 12.0941C27.6162 12.0941 28.3414 12.6639 28.3414 13.5544V16.6143H27.4204V15.8842H27.3982C27.1269 16.378 26.5351 16.6903 25.9211 16.6903C25.0045 16.6903 24.3638 16.15 24.3638 15.3524ZM27.3848 14.9515V14.6012L26.2324 14.6687C25.6585 14.7067 25.3337 14.9472 25.3337 15.3271C25.3337 15.7153 25.6719 15.9686 26.188 15.9686C26.8598 15.9686 27.3848 15.5296 27.3848 14.9515Z" fill="#000008"/>
<path d="M29.2109 18.2477V17.5091C29.282 17.5259 29.4421 17.5259 29.5223 17.5259C29.9671 17.5259 30.2074 17.3487 30.3542 16.8929C30.3542 16.8844 30.4388 16.6228 30.4388 16.6185L28.7482 12.1743H29.7892L30.9728 15.7871H30.9905L32.1741 12.1743H33.1885L31.4353 16.8464C31.0351 17.9227 30.5723 18.2688 29.6024 18.2688C29.5223 18.2688 29.282 18.2603 29.2109 18.2477Z" fill="#000008"/>
</g>
<defs>
<filter id="filter0_dd_2149_33361" x="0.269259" y="0.576829" width="45.4615" height="31.4617" filterUnits="userSpaceOnUse" color-interpolation-filters="sRGB">
<feFlood flood-opacity="0" result="BackgroundImageFix"/>
<feColorMatrix in="SourceAlpha" type="matrix" values="0 0 0 0 0 0 0 0 0 0 0 0 0 0 0 0 0 0 127 0" result="hardAlpha"/>
<feOffset dy="0.230769"/>
<feGaussianBlur stdDeviation="1.15385"/>
<feColorMatrix type="matrix" values="0 0 0 0 0.717647 0 0 0 0 0.717647 0 0 0 0 0.717647 0 0 0 0.08 0"/>
<feBlend mode="normal" in2="BackgroundImageFix" result="effect1_dropShadow_2149_33361"/>
<feColorMatrix in="SourceAlpha" type="matrix" values="0 0 0 0 0 0 0 0 0 0 0 0 0 0 0 0 0 0 127 0" result="hardAlpha"/>
<feOffset dy="2.30769"/>
<feGaussianBlur stdDeviation="2.30769"/>
<feColorMatrix type="matrix" values="0 0 0 0 0.717647 0 0 0 0 0.717647 0 0 0 0 0.717647 0 0 0 0.08 0"/>
<feBlend mode="normal" in2="effect1_dropShadow_2149_33361" result="effect2_dropShadow_2149_33361"/>
<feBlend mode="normal" in="SourceGraphic" in2="effect2_dropShadow_2149_33361" result="shape"/>
</filter>
</defs>
</svg>
