<svg width="20" height="14" viewBox="0 0 20 14" fill="none" xmlns="http://www.w3.org/2000/svg">
<path d="M18.3334 5.33317H1.66675M9.16675 8.6665H5.00008M1.66675 3.83317L1.66675 10.1665C1.66675 11.0999 1.66675 11.5666 1.8484 11.9232C2.00819 12.2368 2.26316 12.4917 2.57676 12.6515C2.93328 12.8332 3.39999 12.8332 4.33341 12.8332L15.6667 12.8332C16.6002 12.8332 17.0669 12.8332 17.4234 12.6515C17.737 12.4917 17.992 12.2368 18.1518 11.9232C18.3334 11.5666 18.3334 11.0999 18.3334 10.1665V3.83317C18.3334 2.89975 18.3334 2.43304 18.1518 2.07652C17.992 1.76292 17.737 1.50795 17.4234 1.34816C17.0669 1.16651 16.6002 1.16651 15.6667 1.1665L4.33342 1.1665C3.39999 1.1665 2.93328 1.1665 2.57676 1.34816C2.26316 1.50795 2.00819 1.76292 1.8484 2.07652C1.66675 2.43304 1.66675 2.89975 1.66675 3.83317Z" stroke="#0074EB" stroke-width="1.5" stroke-linecap="round" stroke-linejoin="round"/>
</svg>
