<svg width="25" height="25" viewBox="0 0 25 25" fill="none" xmlns="http://www.w3.org/2000/svg">
<path d="M6.375 2.5L3.375 6.5V20.5C3.375 21.0304 3.58571 21.5391 3.96079 21.9142C4.33586 22.2893 4.84457 22.5 5.375 22.5H19.375C19.9054 22.5 20.4141 22.2893 20.7892 21.9142C21.1643 21.5391 21.375 21.0304 21.375 20.5V6.5L18.375 2.5H6.375Z" stroke="#979C9E" stroke-width="1.5" stroke-linecap="round" stroke-linejoin="round"/>
<path d="M3.375 6.5H21.375" stroke="#979C9E" stroke-width="1.5" stroke-linecap="round" stroke-linejoin="round"/>
<path d="M16.375 10.5C16.375 11.5609 15.9536 12.5783 15.2034 13.3284C14.4533 14.0786 13.4359 14.5 12.375 14.5C11.3141 14.5 10.2967 14.0786 9.54657 13.3284C8.79643 12.5783 8.375 11.5609 8.375 10.5" stroke="#979C9E" stroke-width="1.5" stroke-linecap="round" stroke-linejoin="round"/>
</svg>
