<svg width="19" height="20" viewBox="0 0 19 20" fill="none" xmlns="http://www.w3.org/2000/svg">
<path d="M6.9083 7.49983C7.10422 6.94288 7.49093 6.47325 7.99993 6.17411C8.50894 5.87496 9.10738 5.76561 9.68928 5.86542C10.2712 5.96523 10.799 6.26777 11.1792 6.71944C11.5594 7.1711 11.7675 7.74276 11.7666 8.33316C11.7666 9.99983 9.26664 10.8332 9.26664 10.8332M9.33333 14.1665H9.34167M1 7.10212V12.8976C1 13.1014 1 13.2033 1.02303 13.2992C1.04344 13.3842 1.07711 13.4655 1.1228 13.5401C1.17433 13.6242 1.2464 13.6962 1.39052 13.8404L5.49281 17.9426C5.63694 18.0868 5.709 18.1588 5.7931 18.2104C5.86766 18.2561 5.94894 18.2897 6.03397 18.3101C6.12988 18.3332 6.23179 18.3332 6.43562 18.3332H12.231C12.4349 18.3332 12.5368 18.3332 12.6327 18.3101C12.7177 18.2897 12.799 18.2561 12.8736 18.2104C12.9577 18.1588 13.0297 18.0868 13.1739 17.9426L17.2761 13.8404C17.4203 13.6962 17.4923 13.6242 17.5439 13.5401C17.5896 13.4655 17.6232 13.3842 17.6436 13.2992C17.6667 13.2033 17.6667 13.1014 17.6667 12.8976V7.10212C17.6667 6.8983 17.6667 6.79638 17.6436 6.70048C17.6232 6.61545 17.5896 6.53416 17.5439 6.4596C17.4923 6.3755 17.4203 6.30344 17.2761 6.15931L13.1739 2.05703C13.0297 1.9129 12.9577 1.84084 12.8736 1.7893C12.799 1.74361 12.7177 1.70994 12.6327 1.68953C12.5368 1.6665 12.4349 1.6665 12.231 1.6665H6.43562C6.23179 1.6665 6.12988 1.6665 6.03397 1.68953C5.94894 1.70994 5.86766 1.74361 5.7931 1.7893C5.709 1.84084 5.63694 1.9129 5.49281 2.05703L1.39052 6.15931C1.2464 6.30344 1.17433 6.3755 1.1228 6.4596C1.07711 6.53416 1.04344 6.61545 1.02303 6.70048C1 6.79638 1 6.8983 1 7.10212Z" stroke="#0074EB" stroke-width="1.5" stroke-linecap="round" stroke-linejoin="round"/>
</svg>
