<svg width="20" height="20" viewBox="0 0 20 20" fill="none" xmlns="http://www.w3.org/2000/svg">
<path d="M6.66675 11.6665C6.66675 11.6665 7.91675 13.3332 10.0001 13.3332C12.0834 13.3332 13.3334 11.6665 13.3334 11.6665M12.5001 7.49984H12.5084M7.50008 7.49984H7.50841M18.3334 9.99984C18.3334 14.6022 14.6025 18.3332 10.0001 18.3332C5.39771 18.3332 1.66675 14.6022 1.66675 9.99984C1.66675 5.39746 5.39771 1.6665 10.0001 1.6665C14.6025 1.6665 18.3334 5.39746 18.3334 9.99984ZM12.9167 7.49984C12.9167 7.72996 12.7302 7.9165 12.5001 7.9165C12.27 7.9165 12.0834 7.72996 12.0834 7.49984C12.0834 7.26972 12.27 7.08317 12.5001 7.08317C12.7302 7.08317 12.9167 7.26972 12.9167 7.49984ZM7.91675 7.49984C7.91675 7.72996 7.7302 7.9165 7.50008 7.9165C7.26996 7.9165 7.08341 7.72996 7.08341 7.49984C7.08341 7.26972 7.26996 7.08317 7.50008 7.08317C7.7302 7.08317 7.91675 7.26972 7.91675 7.49984Z" stroke="#0074EB" stroke-width="1.5" stroke-linecap="round" stroke-linejoin="round"/>
</svg>
