<svg width="25" height="25" viewBox="0 0 25 25" fill="none" xmlns="http://www.w3.org/2000/svg">
<path d="M17.2766 3.5H19.9632V12.1593C19.9632 13.0807 19.6714 13.8971 19.0879 14.6086C18.5043 15.3157 17.6839 15.8729 16.6266 16.28C15.5693 16.6829 14.33 16.8843 12.9088 16.8843C11.4932 16.8843 10.2569 16.6829 9.19956 16.28C8.14226 15.8729 7.32185 15.3157 6.73831 14.6086C6.15478 13.8971 5.86301 13.0807 5.86301 12.1593V3.5H8.54091V11.2273C8.54091 11.823 8.9464 12.7644 9.29883 13.2273C9.65704 13.6902 10.146 13.9616 10.7988 14.2273C11.4517 14.4887 12.0132 14.6086 12.9088 14.6086C13.8101 14.6086 14.646 14.4887 15.2988 14.2273C15.9575 13.9616 16.28 13.6902 16.6266 13.2273C16.979 12.7644 17.2766 11.823 17.2766 11.2273V3.5Z" fill="#979C9E"/>
<path d="M3.83691 19.7273H21.9131V21.5H3.91309L3.83691 19.7273Z" fill="#979C9E"/>
</svg>
