<svg width="46" height="33" viewBox="0 0 46 33" fill="none" xmlns="http://www.w3.org/2000/svg">
<g filter="url(#filter0_dd_2149_33363)">
<rect x="5" y="3" width="36" height="22" rx="2.76923" fill="white"/>
<rect x="4.94231" y="2.94231" width="36.1154" height="22.1154" rx="2.82692" stroke="#D6DCE5" stroke-width="0.115385"/>
<path d="M25.586 9.48222H20.2856V18.5177H25.586V9.48222Z" fill="#FF5F00"/>
<path d="M20.6221 13.9999C20.6213 13.1298 20.8292 12.2708 21.23 11.4881C21.6309 10.7054 22.2142 10.0195 22.9358 9.48222C22.0422 8.81591 20.969 8.40155 19.8388 8.28648C18.7086 8.17142 17.5672 8.36029 16.5448 8.83153C15.5225 9.30276 14.6605 10.0373 14.0575 10.9513C13.4544 11.8653 13.1346 12.9217 13.1346 13.9999C13.1346 15.0781 13.4544 16.1346 14.0575 17.0486C14.6605 17.9625 15.5225 18.6971 16.5448 19.1683C17.5672 19.6396 18.7086 19.8284 19.8388 19.7134C20.969 19.5983 22.0422 19.184 22.9358 18.5176C22.2142 17.9804 21.6309 17.2945 21.23 16.5118C20.8292 15.7291 20.6213 14.8701 20.6221 13.9999Z" fill="#EB001B"/>
<path d="M32.7367 13.9999C32.7367 15.0781 32.417 16.1346 31.814 17.0485C31.211 17.9625 30.349 18.6971 29.3267 19.1683C28.3044 19.6396 27.1629 19.8284 26.0328 19.7134C24.9026 19.5983 23.8294 19.184 22.9358 18.5176C23.6568 17.9799 24.2397 17.2938 24.6405 16.5112C25.0412 15.7287 25.2495 14.87 25.2495 13.9999C25.2495 13.1299 25.0412 12.2712 24.6405 11.4886C24.2397 10.706 23.6568 10.02 22.9358 9.48222C23.8294 8.81591 24.9026 8.40154 26.0328 8.28648C27.1629 8.17142 28.3044 8.3603 29.3267 8.83154C30.349 9.30278 31.211 10.0374 31.814 10.9513C32.417 11.8653 32.7367 12.9217 32.7367 13.9999Z" fill="#F79E1B"/>
<path d="M32.1588 17.5607V17.3757H32.2374V17.338H32.0371V17.3757H32.1158V17.5607H32.1588ZM32.5475 17.5607V17.3376H32.4862L32.4156 17.491L32.3449 17.3376H32.2835V17.5607H32.3269V17.3924L32.3931 17.5375H32.438L32.5042 17.3921V17.5607H32.5475Z" fill="#F79E1B"/>
</g>
<defs>
<filter id="filter0_dd_2149_33363" x="0.269259" y="0.576829" width="45.4615" height="31.4617" filterUnits="userSpaceOnUse" color-interpolation-filters="sRGB">
<feFlood flood-opacity="0" result="BackgroundImageFix"/>
<feColorMatrix in="SourceAlpha" type="matrix" values="0 0 0 0 0 0 0 0 0 0 0 0 0 0 0 0 0 0 127 0" result="hardAlpha"/>
<feOffset dy="0.230769"/>
<feGaussianBlur stdDeviation="1.15385"/>
<feColorMatrix type="matrix" values="0 0 0 0 0.717647 0 0 0 0 0.717647 0 0 0 0 0.717647 0 0 0 0.08 0"/>
<feBlend mode="normal" in2="BackgroundImageFix" result="effect1_dropShadow_2149_33363"/>
<feColorMatrix in="SourceAlpha" type="matrix" values="0 0 0 0 0 0 0 0 0 0 0 0 0 0 0 0 0 0 127 0" result="hardAlpha"/>
<feOffset dy="2.30769"/>
<feGaussianBlur stdDeviation="2.30769"/>
<feColorMatrix type="matrix" values="0 0 0 0 0.717647 0 0 0 0 0.717647 0 0 0 0 0.717647 0 0 0 0.08 0"/>
<feBlend mode="normal" in2="effect1_dropShadow_2149_33363" result="effect2_dropShadow_2149_33363"/>
<feBlend mode="normal" in="SourceGraphic" in2="effect2_dropShadow_2149_33363" result="shape"/>
</filter>
</defs>
</svg>
