<svg width="20" height="20" viewBox="0 0 20 20" fill="none" xmlns="http://www.w3.org/2000/svg">
<g clip-path="url(#clip0_103_5666)">
<path d="M8.33342 12.4998L5.7707 15.0946C5.41324 15.4565 5.2345 15.6375 5.08087 15.6502C4.94759 15.6613 4.81709 15.6077 4.73005 15.5062C4.62971 15.3892 4.62971 15.1348 4.62971 14.6261V13.3262C4.62971 12.8698 4.25598 12.5396 3.80442 12.4734V12.4734C2.71153 12.3134 1.85323 11.4551 1.69314 10.3622C1.66675 10.182 1.66675 9.96693 1.66675 9.53687V5.6665C1.66675 4.26637 1.66675 3.56631 1.93923 3.03153C2.17892 2.56112 2.56137 2.17867 3.03177 1.93899C3.56655 1.6665 4.26662 1.6665 5.66675 1.6665H11.8334C13.2335 1.6665 13.9336 1.6665 14.4684 1.93899C14.9388 2.17867 15.3212 2.56112 15.5609 3.03153C15.8334 3.56631 15.8334 4.26637 15.8334 5.6665V9.1665M15.8334 18.3332L14.0197 17.0722C13.7648 16.895 13.6373 16.8064 13.4986 16.7435C13.3755 16.6878 13.246 16.6472 13.1131 16.6227C12.9633 16.5951 12.808 16.5951 12.4975 16.5951H11.0001C10.0667 16.5951 9.59995 16.5951 9.24343 16.4134C8.92983 16.2536 8.67486 15.9987 8.51507 15.6851C8.33342 15.3285 8.33342 14.8618 8.33342 13.9284V11.8332C8.33342 10.8998 8.33342 10.433 8.51507 10.0765C8.67486 9.76292 8.92983 9.50795 9.24343 9.34816C9.59995 9.1665 10.0667 9.1665 11.0001 9.1665H15.6667C16.6002 9.1665 17.0669 9.1665 17.4234 9.34816C17.737 9.50795 17.992 9.76292 18.1518 10.0765C18.3334 10.433 18.3334 10.8997 18.3334 11.8332V14.0951C18.3334 14.8716 18.3334 15.2599 18.2065 15.5662C18.0374 15.9746 17.7129 16.2991 17.3046 16.4682C16.9983 16.5951 16.61 16.5951 15.8334 16.5951V18.3332Z" stroke="#0074EB" stroke-width="1.5" stroke-linecap="round" stroke-linejoin="round"/>
</g>
<defs>
<clipPath id="clip0_103_5666">
<rect width="20" height="20" fill="white"/>
</clipPath>
</defs>
</svg>
