<svg width="46" height="33" viewBox="0 0 46 33" fill="none" xmlns="http://www.w3.org/2000/svg">
<g filter="url(#filter0_dd_2149_33367)">
<rect x="5" y="3" width="36" height="22" rx="2.76923" fill="white"/>
<rect x="4.94231" y="2.94231" width="36.1154" height="22.1154" rx="2.82692" stroke="#D6DCE5" stroke-width="0.115385"/>
<path fill-rule="evenodd" clip-rule="evenodd" d="M12.8752 10.7993H10.7997C10.6576 10.7993 10.5368 10.8972 10.5147 11.0301L9.67524 16.0782C9.65856 16.1779 9.73989 16.2677 9.84642 16.2677H10.8373C10.9793 16.2677 11.1001 16.1698 11.1223 16.0366L11.3487 14.675C11.3705 14.5417 11.4916 14.4439 11.6334 14.4439H12.2904C13.6576 14.4439 14.4467 13.8164 14.6528 12.5728C14.7457 12.0288 14.6568 11.6014 14.3881 11.3019C14.0932 10.9733 13.5699 10.7993 12.8752 10.7993ZM13.1147 12.643C13.0012 13.3495 12.4321 13.3495 11.8819 13.3495H11.5687L11.7884 12.0302C11.8015 11.9505 11.8743 11.8917 11.9593 11.8917H12.1028C12.4777 11.8917 12.8313 11.8917 13.014 12.0944C13.1228 12.2153 13.1562 12.3949 13.1147 12.643ZM19.0795 12.6204H18.0856C18.0009 12.6204 17.9277 12.6791 17.9147 12.7589L17.8707 13.0226L17.8012 12.9271C17.586 12.6308 17.1063 12.5318 16.6273 12.5318C15.5289 12.5318 14.5909 13.3208 14.4082 14.4277C14.3132 14.9797 14.4482 15.5076 14.7784 15.8758C15.0813 16.2143 15.5147 16.3553 16.0303 16.3553C16.9153 16.3553 17.4061 15.8156 17.4061 15.8156L17.3617 16.0776C17.345 16.1778 17.4263 16.2675 17.5322 16.2675H18.4276C18.57 16.2675 18.6901 16.1696 18.7125 16.0364L19.2497 12.8098C19.2667 12.7106 19.1857 12.6204 19.0795 12.6204ZM17.694 14.4552C17.5981 14.9938 17.1474 15.3553 16.5727 15.3553C16.2841 15.3553 16.0533 15.2675 15.9053 15.1012C15.7584 14.936 15.7025 14.7007 15.7493 14.4388C15.8389 13.9048 16.2972 13.5316 16.8631 13.5316C17.1453 13.5316 17.3748 13.6204 17.5259 13.7882C17.6773 13.9578 17.7374 14.1944 17.694 14.4552ZM23.3742 12.6203H24.373C24.5129 12.6203 24.5945 12.7691 24.515 12.8779L21.1931 17.4259C21.1393 17.4996 21.0507 17.5434 20.956 17.5434H19.9584C19.818 17.5434 19.736 17.3934 19.8173 17.2843L20.8516 15.8995L19.7515 12.8373C19.7135 12.7308 19.7963 12.6203 19.9157 12.6203H20.8972C21.0247 12.6203 21.1372 12.6997 21.174 12.8154L21.7578 14.6649L23.1354 12.7403C23.1894 12.6652 23.279 12.6203 23.3742 12.6203Z" fill="#253B80"/>
<path fill-rule="evenodd" clip-rule="evenodd" d="M34.2037 16.0778L35.0555 10.9374C35.0686 10.8576 35.1415 10.7989 35.2262 10.7986H36.1851C36.291 10.7986 36.3723 10.8886 36.3556 10.9883L35.5156 16.0361C35.4937 16.1693 35.3729 16.2672 35.2307 16.2672H34.3742C34.2683 16.2672 34.187 16.1774 34.2037 16.0778ZM27.6802 10.7988H25.6043C25.4626 10.7988 25.3418 10.8968 25.3196 11.0297L24.4802 16.0778C24.4635 16.1774 24.5448 16.2672 24.6508 16.2672H25.7159C25.815 16.2672 25.8996 16.1988 25.9151 16.1055L26.1533 14.6746C26.1752 14.5412 26.2963 14.4435 26.438 14.4435H27.0947C28.4622 14.4435 29.2511 13.8159 29.4574 12.5724C29.5505 12.0284 29.4611 11.6009 29.1925 11.3014C28.8977 10.9728 28.3748 10.7988 27.6802 10.7988ZM27.9197 12.6426C27.8065 13.349 27.2374 13.349 26.6868 13.349H26.3739L26.594 12.0297C26.6071 11.95 26.6793 11.8913 26.7645 11.8913H26.908C27.2826 11.8913 27.6365 11.8913 27.8191 12.0939C27.9281 12.2149 27.9612 12.3944 27.9197 12.6426ZM33.8839 12.62H32.8907C32.8053 12.62 32.7329 12.6787 32.7201 12.7585L32.6761 13.0221L32.6063 12.9266C32.3912 12.6303 31.9117 12.5314 31.4328 12.5314C30.3343 12.5314 29.3966 13.3204 29.2139 14.4272C29.1192 14.9792 29.2536 15.5071 29.5838 15.8753C29.8873 16.2138 30.3202 16.3549 30.8357 16.3549C31.7207 16.3549 32.2114 15.8151 32.2114 15.8151L32.1671 16.0771C32.1504 16.1773 32.2317 16.2671 32.3383 16.2671H33.2333C33.375 16.2671 33.4958 16.1692 33.5179 16.036L34.0554 12.8094C34.0719 12.7101 33.9905 12.62 33.8839 12.62ZM32.4986 14.4548C32.4032 14.9933 31.952 15.3549 31.3771 15.3549C31.0891 15.3549 30.8579 15.2671 30.7097 15.1007C30.5628 14.9355 30.5076 14.7003 30.5539 14.4384C30.6439 13.9044 31.1016 13.5311 31.6676 13.5311C31.9499 13.5311 32.1792 13.62 32.3305 13.7878C32.4824 13.9574 32.5426 14.194 32.4986 14.4548Z" fill="#179BD7"/>
</g>
<defs>
<filter id="filter0_dd_2149_33367" x="0.269228" y="0.576829" width="45.4615" height="31.4617" filterUnits="userSpaceOnUse" color-interpolation-filters="sRGB">
<feFlood flood-opacity="0" result="BackgroundImageFix"/>
<feColorMatrix in="SourceAlpha" type="matrix" values="0 0 0 0 0 0 0 0 0 0 0 0 0 0 0 0 0 0 127 0" result="hardAlpha"/>
<feOffset dy="0.230769"/>
<feGaussianBlur stdDeviation="1.15385"/>
<feColorMatrix type="matrix" values="0 0 0 0 0.717647 0 0 0 0 0.717647 0 0 0 0 0.717647 0 0 0 0.08 0"/>
<feBlend mode="normal" in2="BackgroundImageFix" result="effect1_dropShadow_2149_33367"/>
<feColorMatrix in="SourceAlpha" type="matrix" values="0 0 0 0 0 0 0 0 0 0 0 0 0 0 0 0 0 0 127 0" result="hardAlpha"/>
<feOffset dy="2.30769"/>
<feGaussianBlur stdDeviation="2.30769"/>
<feColorMatrix type="matrix" values="0 0 0 0 0.717647 0 0 0 0 0.717647 0 0 0 0 0.717647 0 0 0 0.08 0"/>
<feBlend mode="normal" in2="effect1_dropShadow_2149_33367" result="effect2_dropShadow_2149_33367"/>
<feBlend mode="normal" in="SourceGraphic" in2="effect2_dropShadow_2149_33367" result="shape"/>
</filter>
</defs>
</svg>
