<svg width="20" height="20" viewBox="0 0 20 20" fill="none" xmlns="http://www.w3.org/2000/svg">
<path d="M7.82936 16.1424L8.3164 17.2378C8.46118 17.5639 8.69747 17.8409 8.99659 18.0353C9.29571 18.2298 9.64483 18.3332 10.0016 18.3332C10.3583 18.3332 10.7075 18.2298 11.0066 18.0353C11.3057 17.8409 11.542 17.5639 11.6868 17.2378L12.1738 16.1424C12.3472 15.7538 12.6388 15.4297 13.0071 15.2165C13.3778 15.0027 13.8066 14.9116 14.2321 14.9563L15.4238 15.0832C15.7785 15.1207 16.1365 15.0545 16.4544 14.8926C16.7722 14.7307 17.0363 14.4801 17.2145 14.1711C17.393 13.8623 17.4781 13.5084 17.4593 13.1522C17.4406 12.7961 17.3189 12.453 17.109 12.1647L16.4034 11.1952C16.1522 10.8474 16.018 10.4288 16.0201 9.99984C16.02 9.57199 16.1555 9.15513 16.4071 8.8091L17.1127 7.83965C17.3226 7.5513 17.4443 7.20823 17.463 6.85206C17.4818 6.4959 17.3967 6.14195 17.2183 5.83317C17.04 5.5242 16.7759 5.27358 16.4581 5.11169C16.1402 4.94981 15.7822 4.88361 15.4275 4.92113L14.2358 5.04799C13.8103 5.09268 13.3815 5.0016 13.0108 4.7878C12.6418 4.57338 12.3501 4.24764 12.1775 3.85724L11.6868 2.76187C11.542 2.43581 11.3057 2.15877 11.0066 1.96434C10.7075 1.76991 10.3583 1.66645 10.0016 1.6665C9.64483 1.66645 9.29571 1.76991 8.99659 1.96434C8.69747 2.15877 8.46118 2.43581 8.3164 2.76187L7.82936 3.85724C7.6568 4.24764 7.36509 4.57338 6.99603 4.7878C6.62538 5.0016 6.19659 5.09268 5.77103 5.04799L4.57566 4.92113C4.22094 4.88361 3.86294 4.94981 3.54509 5.11169C3.22724 5.27358 2.96317 5.5242 2.78492 5.83317C2.60644 6.14195 2.52141 6.4959 2.54014 6.85206C2.55888 7.20823 2.68058 7.5513 2.89048 7.83965L3.59603 8.8091C3.84765 9.15513 3.98315 9.57199 3.98307 9.99984C3.98315 10.4277 3.84765 10.8445 3.59603 11.1906L2.89048 12.16C2.68058 12.4484 2.55888 12.7914 2.54014 13.1476C2.52141 13.5038 2.60644 13.8577 2.78492 14.1665C2.96335 14.4753 3.22744 14.7258 3.54525 14.8877C3.86306 15.0495 4.22096 15.1158 4.57566 15.0785L5.76733 14.9517C6.19289 14.907 6.62167 14.9981 6.99233 15.2119C7.36277 15.4257 7.65583 15.7515 7.82936 16.1424Z" stroke="#0074EB" stroke-width="1.5" stroke-linecap="round" stroke-linejoin="round"/>
<path d="M10.0001 12.4998C11.3808 12.4998 12.5001 11.3805 12.5001 9.99984C12.5001 8.61913 11.3808 7.49984 10.0001 7.49984C8.61939 7.49984 7.5001 8.61913 7.5001 9.99984C7.5001 11.3805 8.61939 12.4998 10.0001 12.4998Z" stroke="#0074EB" stroke-width="1.5" stroke-linecap="round" stroke-linejoin="round"/>
</svg>
