<svg width="46" height="33" viewBox="0 0 46 33" fill="none" xmlns="http://www.w3.org/2000/svg">
<g filter="url(#filter0_dd_2149_33365)">
<rect x="5" y="3" width="36" height="22" rx="2.76923" fill="white"/>
<rect x="4.94231" y="2.94231" width="36.1154" height="22.1154" rx="2.82692" stroke="#D6DCE5" stroke-width="0.115385"/>
<path d="M22.7799 10.4148L21.1007 17.8605H19.0703L20.7497 10.4148H22.7799ZM31.3228 15.2225L32.3918 12.4264L33.0069 15.2225H31.3228ZM33.5882 17.8605H35.4664L33.8275 10.4148H32.0939C31.7044 10.4148 31.3757 10.6297 31.2293 10.961L28.1831 17.8605H30.3154L30.7387 16.7487H33.3438L33.5882 17.8605ZM28.2889 15.4294C28.2976 13.4642 25.424 13.3561 25.4438 12.4782C25.4498 12.2108 25.7184 11.927 26.3049 11.8542C26.5963 11.8181 27.3975 11.7906 28.3073 12.1877L28.6635 10.6087C28.1749 10.4405 27.5461 10.2786 26.764 10.2786C24.7572 10.2786 23.3446 11.2907 23.3326 12.7401C23.32 13.8118 24.341 14.41 25.1104 14.7663C25.9014 15.1313 26.1673 15.3651 26.1638 15.6915C26.1586 16.1913 25.5328 16.4114 24.949 16.4201C23.9279 16.4355 23.3354 16.1588 22.8631 15.95L22.4952 17.5815C22.9694 17.7882 23.8452 17.9677 24.7537 17.9769C26.8865 17.9769 28.2819 16.9773 28.2889 15.4294ZM19.8784 10.4148L16.5887 17.8605H14.442L12.8232 11.9183C12.7248 11.5523 12.6393 11.4185 12.3405 11.2641C11.8528 11.0131 11.0466 10.7772 10.3373 10.6311L10.3858 10.4148H13.8407C14.281 10.4148 14.6772 10.6929 14.7771 11.1738L15.6322 15.4827L17.7451 10.4148H19.8784Z" fill="#1434CB"/>
</g>
<defs>
<filter id="filter0_dd_2149_33365" x="0.269259" y="0.576829" width="45.4615" height="31.4617" filterUnits="userSpaceOnUse" color-interpolation-filters="sRGB">
<feFlood flood-opacity="0" result="BackgroundImageFix"/>
<feColorMatrix in="SourceAlpha" type="matrix" values="0 0 0 0 0 0 0 0 0 0 0 0 0 0 0 0 0 0 127 0" result="hardAlpha"/>
<feOffset dy="0.230769"/>
<feGaussianBlur stdDeviation="1.15385"/>
<feColorMatrix type="matrix" values="0 0 0 0 0.717647 0 0 0 0 0.717647 0 0 0 0 0.717647 0 0 0 0.08 0"/>
<feBlend mode="normal" in2="BackgroundImageFix" result="effect1_dropShadow_2149_33365"/>
<feColorMatrix in="SourceAlpha" type="matrix" values="0 0 0 0 0 0 0 0 0 0 0 0 0 0 0 0 0 0 127 0" result="hardAlpha"/>
<feOffset dy="2.30769"/>
<feGaussianBlur stdDeviation="2.30769"/>
<feColorMatrix type="matrix" values="0 0 0 0 0.717647 0 0 0 0 0.717647 0 0 0 0 0.717647 0 0 0 0.08 0"/>
<feBlend mode="normal" in2="effect1_dropShadow_2149_33365" result="effect2_dropShadow_2149_33365"/>
<feBlend mode="normal" in="SourceGraphic" in2="effect2_dropShadow_2149_33365" result="shape"/>
</filter>
</defs>
</svg>
